<svg xmlns="http://www.w3.org/2000/svg" xmlns:xlink="http://www.w3.org/1999/xlink" version="1.1" width="256" height="256" viewBox="0 0 256 256" xml:space="preserve">
<desc>Created with Fabric.js 1.7.22</desc>
<defs>
</defs>
<g transform="translate(128 128) scale(0.72 0.72)" style="">
	<g style="stroke: none; stroke-width: 0; stroke-dasharray: none; stroke-linecap: butt; stroke-linejoin: miter; stroke-miterlimit: 10; fill: none; fill-rule: nonzero; opacity: 1;" transform="translate(-175.05 -175.05000000000004) scale(3.89 3.89)" >
	<path d="M 58.812 55.408 c -0.657 0 -1.303 0.047 -1.941 0.121 V 25.217 c 3.048 -0.298 5.43 -2.867 5.43 -5.994 v -0.922 C 62.301 8.746 54.555 1 45 1 S 27.699 8.746 27.699 18.301 v 0.922 c 0 3.126 2.382 5.695 5.43 5.994 v 30.312 c -0.638 -0.073 -1.283 -0.121 -1.941 -0.121 c -9.276 0 -16.796 7.52 -16.796 16.796 C 14.392 81.48 21.912 89 31.188 89 c 5.728 0 10.78 -2.872 13.812 -7.25 C 48.032 86.128 53.083 89 58.812 89 c 9.276 0 16.796 -7.52 16.796 -16.796 C 75.608 62.928 68.088 55.408 58.812 55.408 z" style="stroke: none; stroke-width: 1; stroke-dasharray: none; stroke-linecap: butt; stroke-linejoin: miter; stroke-miterlimit: 10; fill: #ccf; fill-rule: nonzero; opacity: 1;" transform=" matrix(1 0 0 1 0 0) " stroke-linecap="round" />
	</g>
</g>
</svg>